<svg width="160" height="30" viewBox="0 0 224.94 59.22" xmlns="http://www.w3.org/2000/svg"><g id="svgGroup" stroke-linecap="round" fill-rule="evenodd" font-size="9pt" stroke="#00000000" stroke-width="0.25mm" fill="#ffffff" style="stroke:#00000000;stroke-width:0.25mm;fill:#ffffff"><path d="M 25.38 44.1 L 14.76 23.52 L 12 17.28 L 10.74 23.52 L 6.66 44.1 L 0 44.1 L 9.12 0 L 9.84 0 L 21.96 23.82 L 25.56 31.8 L 29.16 23.82 L 41.04 0 L 41.7 0 L 51.18 44.1 L 44.58 44.1 L 40.14 23.52 L 38.82 17.28 L 36.42 23.52 L 25.74 44.1 L 25.38 44.1 Z M 164.4 56.1 L 165.84 50.1 Q 169.8 52.68 174.48 52.68 A 12.354 12.354 0 0 0 177.315 52.37 A 9.156 9.156 0 0 0 180.54 50.94 A 5.035 5.035 0 0 0 182.188 48.885 Q 183.025 47.074 183.06 44.16 L 183.06 39.24 A 8.836 8.836 0 0 1 180.91 41.831 A 12.221 12.221 0 0 1 178.98 43.14 A 12.614 12.614 0 0 1 173.006 44.698 A 14.844 14.844 0 0 1 172.74 44.7 Q 169.14 44.7 166.14 42.93 A 12.366 12.366 0 0 1 161.68 38.366 A 14.872 14.872 0 0 1 161.4 37.86 A 14.91 14.91 0 0 1 159.87 33.095 A 19.506 19.506 0 0 1 159.66 30.18 A 18.245 18.245 0 0 1 160.112 26.038 A 14.8 14.8 0 0 1 161.31 22.71 Q 162.96 19.44 166.02 17.64 A 12.977 12.977 0 0 1 170.886 15.99 A 16.686 16.686 0 0 1 173.16 15.84 A 12.134 12.134 0 0 1 177.097 16.472 A 11.459 11.459 0 0 1 177.66 16.68 A 14.787 14.787 0 0 1 179.7 17.674 A 11.509 11.509 0 0 1 181.23 18.75 A 9.753 9.753 0 0 1 182.106 19.573 Q 182.507 20.003 182.785 20.43 A 4.307 4.307 0 0 1 183.18 21.18 L 183.3 16.56 L 189.42 16.56 L 189.42 43.92 A 21.924 21.924 0 0 1 189.035 48.166 Q 188.552 50.61 187.464 52.509 A 11.433 11.433 0 0 1 185.82 54.72 A 11.07 11.07 0 0 1 181.403 57.495 Q 179.625 58.123 177.436 58.359 A 25.977 25.977 0 0 1 174.66 58.5 Q 171.6 58.5 168.63 57.66 Q 166.284 56.997 165.005 56.408 A 7.79 7.79 0 0 1 164.4 56.1 Z M 58.68 59.22 L 64.62 44.94 L 53.22 16.56 L 60.54 16.56 L 66.42 34.08 L 67.74 38.34 L 69.06 34.08 L 75.24 16.56 L 82.32 16.56 L 65.4 59.22 L 58.68 59.22 Z M 101.64 44.1 L 101.64 0 L 108.42 0 L 108.42 38.1 L 121.08 38.1 L 121.08 44.1 L 101.64 44.1 Z M 135.608 44.126 A 16.093 16.093 0 0 0 139.98 44.7 A 17.489 17.489 0 0 0 141.922 44.595 A 13.961 13.961 0 0 0 147.51 42.78 Q 150.78 40.86 152.58 37.56 A 14.427 14.427 0 0 0 153.529 35.427 A 15.549 15.549 0 0 0 154.38 30.24 A 17.584 17.584 0 0 0 154.378 29.993 A 15.061 15.061 0 0 0 152.61 22.98 Q 150.84 19.68 147.57 17.76 Q 144.3 15.84 139.98 15.84 Q 135.66 15.84 132.36 17.76 Q 129.06 19.68 127.29 22.98 A 14.742 14.742 0 0 0 126.644 24.348 A 15.356 15.356 0 0 0 125.52 30.24 A 17.627 17.627 0 0 0 125.529 30.802 A 14.899 14.899 0 0 0 127.32 37.56 Q 129.12 40.86 132.42 42.78 A 13.665 13.665 0 0 0 135.608 44.126 Z M 206.168 44.126 A 16.093 16.093 0 0 0 210.54 44.7 A 17.489 17.489 0 0 0 212.482 44.595 A 13.961 13.961 0 0 0 218.07 42.78 Q 221.34 40.86 223.14 37.56 A 14.427 14.427 0 0 0 224.089 35.427 A 15.549 15.549 0 0 0 224.94 30.24 A 17.584 17.584 0 0 0 224.938 29.993 A 15.061 15.061 0 0 0 223.17 22.98 Q 221.4 19.68 218.13 17.76 Q 214.86 15.84 210.54 15.84 Q 206.22 15.84 202.92 17.76 Q 199.62 19.68 197.85 22.98 A 14.742 14.742 0 0 0 197.204 24.348 A 15.356 15.356 0 0 0 196.08 30.24 A 17.627 17.627 0 0 0 196.089 30.802 A 14.899 14.899 0 0 0 197.88 37.56 Q 199.68 40.86 202.98 42.78 A 13.665 13.665 0 0 0 206.168 44.126 Z M 182.64 30.66 L 182.64 30.24 A 10.557 10.557 0 0 0 182.298 27.508 A 8.959 8.959 0 0 0 181.56 25.62 A 8.255 8.255 0 0 0 179.553 23.109 A 7.888 7.888 0 0 0 178.62 22.44 Q 176.76 21.3 174.54 21.3 A 9.476 9.476 0 0 0 172.055 21.608 A 6.703 6.703 0 0 0 168.6 23.79 A 8.699 8.699 0 0 0 166.748 27.691 A 12.452 12.452 0 0 0 166.5 30.24 A 12.733 12.733 0 0 0 166.791 33.04 Q 167.261 35.126 168.49 36.652 A 8.15 8.15 0 0 0 168.57 36.75 A 6.706 6.706 0 0 0 172.544 39.054 A 10.16 10.16 0 0 0 174.54 39.24 A 8.123 8.123 0 0 0 177.913 38.551 A 7.902 7.902 0 0 0 180.3 36.87 Q 182.64 34.5 182.64 30.66 Z M 140.16 39.42 A 7.529 7.529 0 0 0 142.722 39.002 A 6.419 6.419 0 0 0 145.65 36.84 A 9.34 9.34 0 0 0 147.444 32.777 A 12.925 12.925 0 0 0 147.66 30.36 A 11.651 11.651 0 0 0 147.224 27.104 A 9.356 9.356 0 0 0 145.5 23.79 A 6.885 6.885 0 0 0 140.505 21.148 A 8.863 8.863 0 0 0 139.8 21.12 Q 136.395 21.12 134.328 23.737 A 8.325 8.325 0 0 0 134.31 23.76 Q 132.24 26.4 132.24 30.36 Q 132.24 34.2 134.46 36.81 A 7.087 7.087 0 0 0 139.617 39.404 A 8.901 8.901 0 0 0 140.16 39.42 Z M 210.72 39.42 A 7.529 7.529 0 0 0 213.282 39.002 A 6.419 6.419 0 0 0 216.21 36.84 A 9.34 9.34 0 0 0 218.004 32.777 A 12.925 12.925 0 0 0 218.22 30.36 A 11.651 11.651 0 0 0 217.784 27.104 A 9.356 9.356 0 0 0 216.06 23.79 A 6.885 6.885 0 0 0 211.065 21.148 A 8.863 8.863 0 0 0 210.36 21.12 Q 206.955 21.12 204.888 23.737 A 8.325 8.325 0 0 0 204.87 23.76 Q 202.8 26.4 202.8 30.36 Q 202.8 34.2 205.02 36.81 A 7.087 7.087 0 0 0 210.177 39.404 A 8.901 8.901 0 0 0 210.72 39.42 Z"/></g></svg>